<?xml version="1.0" standalone="no"?>
<!DOCTYPE svg PUBLIC "-//W3C//DTD SVG 20010904//EN"
 "http://www.w3.org/TR/2001/REC-SVG-20010904/DTD/svg10.dtd">
<svg version="1.0" xmlns="http://www.w3.org/2000/svg"
 width="640.000000pt" height="640.000000pt" viewBox="0 0 640.000000 640.000000"
 preserveAspectRatio="xMidYMid meet">
<metadata>
Created by potrace 1.14, written by Peter Selinger 2001-2017
</metadata>
<g transform="translate(0.000000,640.000000) scale(0.100000,-0.100000)"
fill="#000000" stroke="none">
<path d="M5060 6297 c-164 -68 -314 -209 -765 -717 -248 -278 -266 -299 -326
-365 -38 -41 -131 -149 -403 -465 -147 -171 -386 -453 -442 -520 -217 -261
-257 -308 -295 -339 -23 -19 -50 -53 -60 -76 -10 -22 -34 -58 -54 -78 -19 -20
-41 -52 -48 -71 -7 -20 -247 -317 -567 -702 -1249 -1500 -1456 -1750 -1467
-1781 -11 -31 -103 -179 -435 -698 -78 -121 -142 -231 -144 -245 -1 -14 -14
-48 -28 -76 -39 -77 -31 -105 20 -70 17 12 348 14 2315 13 1261 0 2364 3 2449
7 199 9 369 20 510 31 25 1 88 6 140 10 166 11 214 15 265 20 28 3 84 7 125
10 202 15 435 46 448 60 20 20 -94 43 -313 64 -174 17 -176 18 -60 20 199 5
387 18 438 32 109 29 -31 68 -303 83 -229 13 -926 20 -2007 19 -656 -1 -1193
0 -1193 2 0 2 7 11 16 19 16 17 8 21 -14 7 -8 -4 -12 -12 -10 -17 1 -5 -13 -9
-33 -10 -24 -1 -36 3 -36 13 0 8 6 12 14 9 8 -3 16 1 19 9 4 8 10 12 15 9 5
-2 17 -1 27 5 10 5 24 6 32 1 7 -4 19 -6 27 -3 15 6 18 33 2 33 -5 0 -8 -4 -4
-9 3 -5 0 -13 -6 -17 -7 -4 -9 -3 -6 3 10 16 -18 24 -33 10 -10 -9 -11 -9 -6
0 3 6 0 13 -6 16 -7 2 17 4 55 4 37 0 67 -3 67 -8 0 -5 -6 -6 -14 -3 -8 3 -17
0 -21 -6 -11 -18 4 -25 26 -12 11 7 25 9 32 5 21 -13 36 -11 30 4 -3 8 -12 12
-19 9 -7 -3 -16 -1 -19 4 -4 6 5 10 19 10 17 0 27 -8 35 -27 l11 -28 -5 27
c-3 15 -1 30 5 33 5 3 11 -1 11 -9 1 -9 2 -21 3 -28 0 -6 8 -13 16 -15 9 -3
11 -1 5 4 -5 4 -11 16 -13 25 -3 16 6 18 73 18 46 0 74 -4 70 -10 -3 -5 5 -3
19 4 29 15 99 9 89 -8 -3 -6 -1 -6 8 2 7 6 19 12 27 12 8 0 10 -5 6 -12 -5 -9
-2 -8 9 1 14 11 88 13 445 7 235 -3 472 -8 527 -10 609 -26 1807 -26 1933 -1
65 12 76 30 26 39 -114 21 -657 34 -1714 42 -911 6 -1141 10 -1149 21 -10 14
-53 35 -59 29 -3 -3 1 -6 9 -6 12 0 11 -2 -1 -11 -13 -9 -13 -10 2 -6 9 3 22
0 28 -8 9 -11 7 -12 -12 -8 -13 3 -29 11 -37 17 -12 9 -13 8 -8 -7 5 -14 3
-16 -10 -9 -9 5 -24 7 -34 5 -11 -3 -19 0 -19 6 0 7 10 10 25 7 14 -3 23 -1
20 4 -3 5 4 7 15 5 11 -2 18 0 16 4 -3 4 -26 7 -51 6 -25 -1 -45 1 -45 5 0 13
134 7 148 -7 8 -7 18 -10 24 -7 6 4 8 3 5 -3 -4 -6 15 -9 48 -8 37 1 52 -2 48
-9 -3 -6 0 -5 8 2 7 6 20 12 28 12 14 0 14 -1 1 -10 -8 -5 -10 -10 -4 -10 5 0
15 5 22 12 8 8 12 8 12 1 0 -13 52 -12 62 1 4 6 3 17 -2 26 -6 12 -5 17 6 17
7 0 14 -7 14 -15 0 -9 6 -12 16 -8 9 3 18 6 20 6 3 0 3 4 0 8 -2 4 24 8 60 8
62 1 81 -7 48 -20 -22 -9 -36 -7 -30 2 3 5 -2 9 -10 9 -13 0 -13 -2 0 -15 12
-12 20 -13 40 -4 18 8 26 8 29 -1 2 -6 6 -3 10 7 4 10 3 15 -3 11 -6 -3 -10
-1 -10 4 0 7 33 11 88 12 48 0 120 2 160 4 54 3 71 1 65 -8 -4 -8 -1 -7 9 1
14 11 153 13 725 13 389 0 770 -2 846 -6 87 -4 137 -2 137 4 0 14 -143 16
-917 16 -363 0 -659 3 -657 7 2 4 -9 3 -25 -2 -16 -4 -31 -6 -34 -4 -8 8 -48
13 -43 5 6 -10 -55 -8 -71 2 -7 5 -13 4 -13 -1 0 -5 -13 -9 -30 -10 -16 0 -30
4 -30 9 0 6 -6 7 -12 2 -20 -12 -88 -14 -88 -2 0 6 4 8 8 5 4 -2 14 0 22 6 12
8 11 9 -3 4 -15 -5 -17 -2 -13 17 4 13 -1 9 -11 -10 -9 -18 -20 -33 -25 -33
-12 0 -10 13 8 38 18 26 10 49 -12 31 -8 -6 -14 -17 -13 -23 5 -41 0 -45 -58
-44 -32 1 -61 6 -65 12 -5 8 -8 7 -8 -1 0 -7 -7 -13 -15 -13 -8 0 -15 5 -15
11 0 5 4 8 9 4 6 -3 9 3 8 13 0 10 -7 19 -14 19 -6 0 -10 -4 -8 -8 3 -4 1 -18
-4 -31 -10 -23 -13 -16 -14 30 0 12 -2 20 -5 17 -3 -2 -12 3 -20 13 -10 12 -9
8 2 -10 20 -33 20 -44 2 -29 -10 9 -15 8 -19 -3 -4 -10 -1 -13 7 -10 8 3 17 1
21 -5 6 -10 -10 -13 -60 -13 -30 0 -36 2 -30 12 3 6 1 10 -4 10 -6 0 -11 -6
-11 -12 0 -17 -248 -22 -267 -6 -9 7 -17 7 -28 -2 -10 -8 -59 -14 -143 -16
-466 -11 -597 -18 -619 -36 -21 -17 -6 -24 54 -27 32 -1 62 -6 67 -12 6 -5 15
-9 20 -9 6 0 4 5 -4 10 -13 8 -13 10 2 10 24 0 30 -15 13 -30 -12 -10 -18 -10
-30 0 -19 16 -20 6 -1 -13 13 -13 12 -15 -11 -15 -26 0 -57 20 -48 30 3 3 -2
5 -10 5 -8 0 -13 -3 -11 -6 1 -3 -4 -13 -13 -21 -21 -20 -108 -19 -123 0 -8
12 -9 12 -4 -3 5 -15 3 -16 -15 -6 -12 6 -19 7 -16 2 3 -5 -27 -10 -66 -11
-40 -1 -85 -3 -102 -5 -16 -1 -39 4 -50 13 -18 14 -19 14 -7 -1 10 -14 5 -16
-46 -18 -124 -4 -276 -25 -341 -47 -20 -6 6 -34 32 -34 11 0 26 -8 33 -17 12
-16 13 -16 8 -1 -4 12 -1 16 13 13 10 -2 18 -4 18 -5 0 -1 67 -4 280 -10 l110
-4 -100 -5 c-55 -3 -108 -2 -117 2 -12 5 -18 3 -18 -5 0 -9 -3 -9 -10 2 -6 10
-10 11 -10 3 0 -7 -5 -13 -11 -13 -5 0 -7 6 -3 13 5 8 2 8 -9 -2 -11 -9 -17
-10 -17 -2 0 6 -7 11 -15 11 -8 0 -15 -4 -15 -10 0 -5 -5 -10 -11 -10 -5 0 -8
4 -5 8 3 5 -1 9 -9 9 -8 0 -12 -4 -9 -8 5 -9 -32 -22 -44 -15 -4 3 -25 1 -45
-4 -39 -8 -47 -1 -22 20 10 9 15 9 15 1 0 -6 5 -11 11 -11 8 0 8 5 -1 15 -7 8
-17 12 -24 8 -6 -4 -18 -6 -27 -5 -9 2 -20 -5 -23 -15 -6 -14 -5 -16 5 -6 17
17 30 16 23 -1 -3 -8 -21 -16 -40 -18 -28 -3 -34 -1 -29 11 4 14 3 14 -8 0 -6
-9 -23 -20 -37 -24 -23 -7 -23 -7 5 20 17 15 23 22 14 16 -9 -6 -20 -7 -24 -3
-5 4 -5 1 -1 -5 7 -13 -4 -17 -32 -14 -6 1 -12 -3 -12 -9 0 -6 5 -8 10 -5 6 3
10 1 10 -6 0 -7 -10 -9 -25 -7 -27 6 -43 -6 -25 -17 8 -5 7 -11 -1 -21 -8 -10
-9 -18 -2 -25 8 -8 13 -7 18 2 6 8 4 10 -5 4 -8 -5 -11 -3 -8 6 3 8 13 16 23
17 10 2 15 0 11 -6 -3 -6 -1 -14 5 -18 7 -4 9 -3 5 4 -4 7 18 9 71 7 431 -19
937 -21 2918 -11 528 2 996 1 1040 -4 44 -5 114 -12 155 -16 41 -3 82 -8 90
-9 8 -1 49 -6 90 -11 41 -4 77 -8 80 -9 3 -1 31 -5 64 -10 35 -4 53 -11 45
-15 -12 -6 -108 -20 -244 -35 -53 -6 -517 -43 -625 -50 -47 -3 -107 -8 -135
-10 -48 -4 -90 -7 -425 -25 -80 -4 -1177 -7 -2439 -7 -2226 1 -2292 2 -2270
19 15 13 26 15 32 9 7 -7 39 16 96 67 47 42 88 79 91 82 3 3 106 95 230 205
124 110 227 202 230 205 33 34 180 160 188 160 10 0 99 93 172 180 25 29 50
58 55 64 6 6 51 58 100 116 50 58 102 118 116 135 15 16 48 55 74 85 26 30 59
69 74 85 14 17 138 161 275 320 137 160 252 292 255 295 4 3 140 160 303 350
437 510 505 588 568 660 32 36 69 79 84 96 14 18 37 34 50 38 13 3 42 31 66
61 23 30 46 55 51 55 19 0 78 63 92 99 9 21 22 45 29 52 11 12 182 216 228
273 8 10 20 23 25 30 6 6 67 79 135 161 69 83 127 152 130 155 4 3 98 115 210
250 113 135 207 247 210 250 3 3 62 73 130 155 69 83 128 152 131 155 21 19
267 327 379 474 74 98 160 211 191 250 120 154 177 276 186 403 8 95 -18 152
-81 182 -54 27 -98 26 -166 -2z m-1088 -5539 c-7 -7 -12 -8 -12 -2 0 14 12 26
19 19 2 -3 -1 -11 -7 -17z m-395 -77 c9 9 13 8 13 0 0 -9 5 -9 20 -1 16 9 20
8 20 -5 0 -20 17 -19 29 3 10 16 10 16 11 0 0 -10 6 -18 13 -18 6 0 4 -5 -6
-11 -9 -5 -22 -7 -27 -4 -5 3 -18 8 -27 10 -10 2 -27 7 -37 11 -12 4 -17 4
-13 -2 3 -5 -3 -10 -13 -10 -10 0 -16 4 -14 8 3 4 -5 8 -18 8 -19 0 -20 -2 -8
-10 19 -13 -24 -7 -60 9 -23 10 -23 11 10 7 19 -1 44 0 55 4 11 4 24 4 29 -1
6 -5 15 -4 23 2z m-343 -13 c-3 -4 0 -8 5 -8 6 0 11 4 11 8 0 14 29 10 34 -5
3 -8 10 -11 16 -8 6 3 7 -1 4 -9 -7 -18 -34 -22 -34 -5 0 5 5 7 12 3 6 -4 8
-3 4 4 -7 11 -44 8 -55 -4 -3 -4 2 -4 12 -1 9 4 17 2 17 -3 0 -5 -11 -9 -25
-8 -15 2 -24 7 -21 14 3 7 -1 15 -9 18 -9 3 -12 -1 -10 -12 3 -15 -6 -18 -56
-19 -32 -1 -59 3 -59 8 0 5 -5 9 -11 9 -5 0 -8 -4 -5 -8 2 -4 -4 -9 -15 -9
-11 -1 -19 5 -20 15 0 14 -2 15 -7 2 -8 -17 -62 -22 -62 -6 0 6 -5 4 -10 -4
-7 -11 -10 -11 -10 -2 0 8 -5 10 -12 6 -7 -5 -31 -7 -53 -5 -22 2 -76 5 -120
6 -44 2 -91 3 -104 4 -13 1 -22 3 -19 6 3 4 116 9 252 12 190 4 250 2 261 -7
13 -11 14 -10 10 1 -4 11 5 14 39 15 25 0 42 -4 40 -8z m-317 -53 c50 0 89 -2
87 -4 -2 -2 3 -13 13 -23 9 -10 11 -18 5 -18 -6 0 -13 6 -15 13 -4 9 -8 8 -17
-3 -10 -13 -11 -12 -6 3 4 12 2 17 -6 14 -7 -2 -12 -10 -10 -17 3 -11 0 -11
-12 -1 -9 7 -13 18 -9 24 4 6 1 7 -6 3 -7 -5 -10 -13 -8 -20 3 -6 -4 -12 -14
-12 -13 0 -15 4 -8 12 7 8 6 15 -2 20 -8 5 -9 3 -4 -6 6 -10 4 -12 -8 -7 -9 3
-19 2 -22 -3 -3 -4 0 -10 6 -12 6 -2 -24 -4 -65 -4 -42 0 -76 1 -76 4 0 2 8
14 17 26 13 18 24 22 43 17 14 -3 66 -6 117 -6z m130 -12 c-4 -3 -2 -12 4 -20
18 -21 4 -15 -16 7 -17 19 -17 20 0 20 10 0 15 -3 12 -7z m40 -13 c-1 -11 -5
-20 -9 -20 -4 0 -8 2 -8 4 0 2 -3 11 -6 20 -4 10 -1 16 9 16 10 0 15 -8 14
-20z m143 9 c0 -4 -9 -6 -20 -4 -11 2 -22 0 -25 -6 -4 -5 6 -8 21 -7 14 2 29
8 31 16 4 9 9 8 19 -5 9 -11 13 -13 12 -4 -2 7 4 16 12 18 12 4 12 3 2 -5 -11
-7 -9 -10 6 -14 11 -3 26 -1 33 4 10 7 9 8 -6 3 -11 -3 -16 -2 -11 2 11 11 69
10 78 -1 3 -5 17 -11 30 -13 17 -2 19 -1 8 6 -8 5 -18 7 -22 5 -4 -3 -8 -1 -8
3 0 5 23 9 50 9 39 0 50 -3 50 -15 0 -14 1 -14 10 -1 11 17 62 21 72 6 6 -8 8
-8 8 0 0 9 62 12 80 4 3 -1 9 -2 13 -1 17 3 1241 0 1532 -4 504 -7 895 -18
1040 -30 22 -2 46 -4 54 -4 8 -1 12 -3 10 -5 -27 -27 -1380 -28 -2109 -1 -101
4 -804 17 -974 19 -98 1 -119 4 -121 16 -2 12 11 15 61 16 35 0 64 -3 64 -7z
m-575 -19 c3 -6 -4 -10 -17 -10 -18 0 -20 2 -8 10 19 12 18 12 25 0z m-231
-47 c4 -10 4 -14 0 -11 -4 4 -15 3 -25 -3 -14 -7 -19 -6 -20 3 0 11 -2 11 -6
0 -4 -10 -8 -10 -21 0 -10 8 -13 9 -9 1 4 -6 3 -14 -3 -18 -5 -3 -10 -2 -10 3
0 6 -7 13 -16 16 -8 3 -12 2 -9 -4 3 -6 1 -10 -4 -10 -6 0 -11 5 -11 10 0 6
-5 10 -11 10 -8 0 -8 -5 1 -15 18 -21 -3 -19 -31 4 -24 19 -24 19 64 19 48 -1
90 2 94 6 9 9 10 8 17 -11z m89 5 c-2 -5 1 -8 6 -8 6 0 11 4 11 8 0 5 14 9 30
9 25 0 29 -4 24 -19 -4 -13 -1 -16 10 -12 8 3 14 11 13 17 -1 7 15 12 40 12
36 1 40 -1 33 -16 -5 -9 -6 -20 -2 -24 4 -5 1 -5 -7 0 -10 6 -12 4 -6 -5 6 -9
4 -11 -6 -4 -22 13 -67 14 -72 0 -3 -9 6 -12 32 -11 20 1 42 -3 50 -9 11 -8
13 -8 8 1 -4 6 -3 14 2 17 5 3 11 -1 15 -9 8 -21 -2 -23 -66 -16 -38 5 -58 3
-58 -3 0 -6 -5 -4 -10 4 -7 11 -10 11 -10 2 0 -9 -5 -10 -19 -3 -10 6 -22 7
-26 3 -5 -4 -5 -2 -2 4 4 7 0 14 -8 17 -9 4 -12 1 -9 -7 3 -9 -5 -13 -26 -14
-16 0 -30 4 -30 9 0 5 11 7 24 5 17 -3 23 0 20 8 -5 14 -64 17 -64 4 0 -5 -5
-6 -10 -3 -6 3 -13 -1 -16 -10 -6 -14 -8 -14 -20 2 -11 15 -13 15 -8 2 4 -12
-1 -16 -20 -16 -14 0 -26 3 -26 8 0 5 -5 9 -11 9 -5 0 -7 -5 -4 -10 8 -13 -18
-8 -27 5 -5 6 -8 6 -8 -1 0 -6 -7 -11 -15 -11 -21 0 -19 17 3 18 9 1 21 1 25
0 4 -1 16 3 27 9 13 7 21 7 25 0 4 -6 12 -7 18 -3 7 4 21 8 32 10 36 4 50 8
52 17 1 5 6 12 11 15 14 9 81 7 75 -1z m214 6 c-3 -3 -12 -4 -19 -1 -8 3 -5 6
6 6 11 1 17 -2 13 -5z m54 -6 c18 -11 23 -10 26 0 4 10 9 8 19 -5 13 -17 14
-17 8 2 -5 16 -4 17 5 5 15 -21 13 -33 -4 -26 -9 3 -18 -1 -21 -9 -4 -8 -11
-12 -16 -9 -6 4 -5 10 3 16 11 8 10 9 -3 4 -11 -3 -18 0 -18 7 0 8 -4 6 -10
-3 -5 -8 -10 -11 -10 -7 0 4 -8 3 -18 -2 -13 -7 -23 -6 -32 2 -12 10 -12 9 -2
-4 6 -9 9 -19 5 -23 -4 -4 0 -4 10 0 9 3 17 2 17 -4 0 -5 -7 -12 -15 -16 -13
-5 -20 5 -16 27 0 4 -3 7 -9 7 -5 0 -10 7 -10 16 0 10 6 14 14 11 8 -3 22 1
33 8 22 18 19 17 44 3z m-549 -46 c-18 -18 -82 -26 -82 -11 0 5 5 9 10 9 6 0
10 6 10 13 -1 6 -10 1 -20 -12 -18 -21 -20 -21 -21 -5 0 15 -2 16 -7 4 -4 -8
-15 -16 -24 -16 -10 -1 -15 3 -11 9 4 7 0 8 -13 3 -23 -10 -18 -10 -118 -3
-76 6 -115 16 -65 18 13 0 33 2 44 5 30 6 101 14 188 20 53 3 77 2 77 -6 0 -6
-4 -9 -8 -6 -4 2 -8 -3 -8 -13 0 -10 6 -18 12 -18 7 0 10 6 7 14 -3 8 0 12 8
10 8 -2 11 -2 7 0 -5 3 -8 12 -8 20 0 14 2 14 19 -1 18 -16 18 -19 3 -34z
m546 -1 c-3 -15 -17 -31 -29 -31 -4 0 -4 41 0 46 8 8 30 -4 29 -15z m-358 -13
c0 -4 -7 -8 -15 -8 -8 0 -15 4 -15 8 0 5 7 9 15 9 8 0 15 -4 15 -9z m-22 -35
c-10 -2 -26 -2 -35 0 -10 3 -2 5 17 5 19 0 27 -2 18 -5z m115 0 c-13 -2 -33
-2 -45 0 -13 2 -3 4 22 4 25 0 35 -2 23 -4z m120 0 c-13 -2 -33 -2 -45 0 -13
2 -3 4 22 4 25 0 35 -2 23 -4z m100 0 c-7 -2 -21 -2 -30 0 -10 3 -4 5 12 5 17
0 24 -2 18 -5z m80 0 c-13 -2 -33 -2 -45 0 -13 2 -3 4 22 4 25 0 35 -2 23 -4z
m3027 -6 c41 -3 120 -6 175 -7 55 -2 132 -6 170 -11 39 -4 88 -10 110 -13 22
-2 51 -9 64 -14 41 -15 8 -22 -179 -37 -62 -5 -798 -6 -875 -1 -27 2 -113 7
-190 10 -77 4 -160 9 -185 11 -25 2 -115 7 -200 10 -85 4 -180 8 -210 10 -30
2 -156 7 -280 10 -124 4 -254 8 -290 10 -36 2 -231 6 -435 10 -624 11 -666 12
-672 18 -6 7 2879 0 2997 -6z m-2815 -22 c336 -3 651 -7 700 -9 50 -3 198 -7
330 -11 132 -4 267 -8 300 -10 33 -2 141 -7 240 -11 99 -3 196 -8 215 -9 19
-1 75 -3 124 -4 49 0 87 -3 85 -6 -18 -17 -2556 -28 -2934 -12 -110 5 -213 8
-228 8 -21 -1 -26 2 -21 11 6 10 4 10 -7 3 -8 -6 -21 -10 -29 -9 -8 1 -31 2
-50 3 -25 1 -31 4 -21 10 8 5 23 8 33 6 10 -2 18 0 18 4 0 4 12 8 28 9 75 3
141 10 151 16 6 4 11 0 11 -9 0 -9 -4 -13 -10 -10 -5 3 -10 1 -10 -4 0 -19 22
-12 27 9 3 11 12 20 20 20 13 0 13 -3 3 -15 -11 -13 -10 -14 4 -9 9 3 16 10
16 15 0 5 15 9 33 9 24 0 28 -3 17 -10 -10 -7 -11 -10 -2 -10 7 0 15 6 18 14
6 15 50 16 73 2 9 -6 12 -5 8 1 -4 6 8 10 28 11 20 1 35 -3 35 -10 0 -7 4 -7
13 -1 17 15 117 16 133 2 8 -7 17 -9 21 -5 3 3 1 6 -5 6 -7 0 -12 4 -12 9 0 5
8 8 18 6 9 -2 292 -6 627 -10z"/>
<path d="M3110 652 c0 -5 7 -9 15 -9 8 0 12 4 9 9 -3 4 -9 8 -15 8 -5 0 -9 -4
-9 -8z"/>
<path d="M3170 649 c0 -5 5 -7 10 -4 6 3 10 8 10 11 0 2 -4 4 -10 4 -5 0 -10
-5 -10 -11z"/>
<path d="M2785 600 c6 -10 4 -12 -8 -7 -9 3 -18 3 -21 -1 -3 -4 4 -8 14 -9 23
-2 35 13 19 23 -8 5 -9 3 -4 -6z"/>
<path d="M2810 598 c0 -12 7 -16 27 -14 15 2 29 8 31 15 4 13 -8 14 -28 1 -9
-6 -17 -5 -22 3 -5 8 -8 7 -8 -5z"/>
<path d="M3119 590 c-5 -4 3 -7 20 -8 17 0 33 3 35 7 6 9 -40 9 -55 1z"/>
<path d="M3347 589 c7 -7 15 -10 18 -7 3 3 -2 9 -12 12 -14 6 -15 5 -6 -5z"/>
<path d="M2534 529 c-2 -4 -22 -5 -44 -3 -26 2 -40 -1 -40 -8 0 -6 3 -9 6 -5
4 3 21 -1 38 -10 31 -17 75 -25 77 -14 6 41 4 47 -14 47 -10 0 -20 -3 -23 -7z
m27 -16 c13 -16 12 -17 -3 -5 -14 11 -18 11 -25 -2 -7 -13 -10 -13 -28 1 -20
15 -20 15 2 9 12 -4 24 -2 28 4 8 13 10 13 26 -7z"/>
<path d="M2623 525 c13 -14 39 -13 44 1 2 5 -10 10 -26 10 -23 1 -27 -1 -18
-11z"/>
<path d="M2745 530 c-3 -6 1 -7 9 -4 18 7 21 14 7 14 -6 0 -13 -4 -16 -10z"/>
<path d="M2095 511 c-3 -5 -2 -12 3 -15 5 -3 9 1 9 9 0 17 -3 19 -12 6z"/>
<path d="M2045 500 c-3 -6 1 -7 9 -4 18 7 21 14 7 14 -6 0 -13 -4 -16 -10z"/>
<path d="M2083 383 c-25 -25 -18 -30 11 -8 10 7 16 17 15 22 -2 4 -14 -2 -26
-14z"/>
<path d="M2131 394 c0 -11 3 -14 6 -6 3 7 2 16 -1 19 -3 4 -6 -2 -5 -13z"/>
<path d="M2255 400 c-3 -5 -1 -10 4 -10 6 0 11 5 11 10 0 6 -2 10 -4 10 -3 0
-8 -4 -11 -10z"/>
<path d="M2317 395 c-4 -8 -1 -17 6 -21 7 -4 9 -4 5 1 -4 4 -3 14 3 22 7 8 8
13 1 13 -5 0 -12 -7 -15 -15z"/>
<path d="M2414 398 c-4 -7 -4 -10 1 -6 4 4 15 2 24 -5 14 -11 14 -10 2 6 -16
20 -18 21 -27 5z"/>
<path d="M1860 378 c-12 -8 -12 -9 2 -5 9 3 19 1 22 -6 3 -9 5 -9 5 0 1 18
-13 23 -29 11z"/>
<path d="M2030 380 c0 -5 5 -10 10 -10 6 0 10 5 10 10 0 6 -4 10 -10 10 -5 0
-10 -4 -10 -10z"/>
<path d="M2150 379 c0 -5 5 -7 10 -4 6 3 10 8 10 11 0 2 -4 4 -10 4 -5 0 -10
-5 -10 -11z"/>
<path d="M1910 370 c0 -6 7 -10 15 -10 8 0 15 2 15 4 0 2 -7 6 -15 10 -8 3
-15 1 -15 -4z"/>
<path d="M1988 363 c6 -2 18 -2 25 0 6 3 1 5 -13 5 -14 0 -19 -2 -12 -5z"/>
<path d="M4810 926 c0 -2 7 -7 16 -10 8 -3 12 -2 9 4 -6 10 -25 14 -25 6z"/>
<path d="M5113 905 c0 -8 4 -12 9 -9 5 3 6 10 3 15 -9 13 -12 11 -12 -6z"/>
<path d="M4676 898 c3 -5 10 -6 15 -3 13 9 11 12 -6 12 -8 0 -12 -4 -9 -9z"/>
<path d="M4713 885 c0 -8 4 -12 9 -9 5 3 6 10 3 15 -9 13 -12 11 -12 -6z"/>
<path d="M4465 879 c-3 -4 2 -6 10 -5 21 3 28 13 10 13 -9 0 -18 -4 -20 -8z"/>
<path d="M4620 886 c0 -2 8 -10 18 -17 15 -13 16 -12 3 4 -13 16 -21 21 -21
13z"/>
<path d="M5030 881 c0 -6 4 -13 10 -16 6 -3 7 1 4 9 -7 18 -14 21 -14 7z"/>
<path d="M4679 878 c-5 -19 -8 -50 -4 -46 7 7 15 48 9 48 -2 0 -4 -1 -5 -2z"/>
<path d="M4935 860 c3 -5 8 -10 11 -10 2 0 4 5 4 10 0 6 -5 10 -11 10 -5 0 -7
-4 -4 -10z"/>
<path d="M4829 843 c-13 -16 -12 -17 4 -4 16 13 21 21 13 21 -2 0 -10 -8 -17
-17z"/>
<path d="M4384 835 c-18 -14 -18 -14 4 -8 12 3 22 9 22 14 0 12 -3 11 -26 -6z"/>
<path d="M4272 827 c-8 -10 -6 -13 11 -14 12 0 16 1 9 4 -6 3 -10 9 -6 14 8
14 -2 11 -14 -4z"/>
<path d="M4320 836 c0 -2 7 -7 16 -10 8 -3 12 -2 9 4 -6 10 -25 14 -25 6z"/>
<path d="M4552 815 c15 -16 20 -17 30 -6 11 11 10 13 0 7 -7 -4 -21 -2 -30 5
-15 12 -15 11 0 -6z"/>
<path d="M4624 822 c4 -3 14 -7 22 -8 9 -1 13 0 10 4 -4 3 -14 7 -22 8 -9 1
-13 0 -10 -4z"/>
<path d="M3955 809 c-4 -6 -14 -8 -24 -4 -13 5 -14 4 -3 -6 10 -11 15 -10 29
4 10 9 14 17 11 17 -4 0 -10 -5 -13 -11z"/>
<path d="M3995 809 c-4 -6 -5 -12 -2 -15 2 -3 7 2 10 11 7 17 1 20 -8 4z"/>
<path d="M4098 798 c4 -16 2 -19 -8 -13 -9 5 -11 4 -6 -4 4 -6 12 -9 17 -6 12
8 12 32 0 39 -5 4 -7 -4 -3 -16z"/>
<path d="M4315 810 c-3 -5 -2 -18 4 -27 7 -14 9 -12 8 10 -2 30 -3 31 -12 17z"/>
<path d="M4444 804 c-18 -14 -18 -15 4 -4 12 6 22 13 22 15 0 8 -5 6 -26 -11z"/>
<path d="M3796 801 c-3 -5 2 -15 12 -22 15 -12 16 -12 5 2 -7 9 -10 19 -6 22
3 4 4 7 0 7 -3 0 -8 -4 -11 -9z"/>
<path d="M4054 797 c1 -8 8 -22 15 -31 9 -11 10 -16 2 -16 -6 0 -11 -5 -11
-11 0 -8 4 -8 14 0 10 8 16 9 21 2 6 -11 39 -10 50 1 3 3 -1 11 -10 18 -11 9
-18 10 -28 1 -11 -8 -18 -7 -30 7 -8 9 -16 21 -15 25 0 5 -3 11 -5 14 -3 3 -5
-2 -3 -10z m80 -45 c2 -4 -4 -9 -15 -9 -11 -1 -17 2 -14 8 7 11 22 12 29 1z"/>
<path d="M4130 793 c5 -12 15 -25 22 -29 7 -4 8 -3 4 4 -4 7 -1 12 6 12 8 0
14 -9 15 -20 1 -13 -2 -18 -10 -14 -7 4 -8 3 -4 -1 4 -5 14 -10 22 -11 12 -2
13 2 3 19 -6 12 -11 24 -10 27 1 3 -6 5 -15 5 -10 0 -24 7 -31 15 -11 13 -11
12 -2 -7z"/>
<path d="M4184 803 c4 -4 16 -8 28 -10 28 -4 18 6 -12 12 -12 2 -20 1 -16 -2z"/>
<path d="M4344 798 c-4 -5 -3 -12 0 -15 3 -4 6 -1 6 6 0 7 4 10 9 6 5 -3 12
-2 15 3 3 5 -2 9 -10 9 -8 0 -17 -4 -20 -9z"/>
<path d="M4720 800 c-9 -6 -10 -10 -3 -10 6 0 15 5 18 10 8 12 4 12 -15 0z"/>
<path d="M4011 793 c-1 -17 16 -25 25 -12 4 7 3 9 -4 5 -5 -3 -13 0 -15 6 -4
9 -6 10 -6 1z"/>
<path d="M3630 781 c0 -6 4 -13 10 -16 6 -3 7 1 4 9 -7 18 -14 21 -14 7z"/>
<path d="M4235 780 c-4 -6 -4 -14 -1 -17 3 -4 6 -1 6 5 0 7 5 12 11 12 5 0 8
-4 5 -8 -2 -4 0 -14 5 -22 7 -11 8 -9 6 9 -4 27 -21 38 -32 21z"/>
<path d="M4375 779 c-4 -6 -5 -12 -2 -15 2 -3 7 2 10 11 7 17 1 20 -8 4z"/>
<path d="M4507 779 c7 -7 15 -10 18 -7 3 3 -2 9 -12 12 -14 6 -15 5 -6 -5z"/>
<path d="M3859 768 c-1 -7 0 -20 1 -28 1 -12 -1 -13 -11 -2 -7 6 -18 12 -23
12 -16 -1 26 -24 45 -25 9 -1 15 7 16 19 1 12 -1 15 -4 8 -3 -6 -9 -10 -13 -7
-5 3 -7 12 -3 20 3 8 2 15 -1 15 -3 0 -7 -6 -7 -12z"/>
<path d="M4201 764 c0 -11 3 -14 6 -6 3 7 2 16 -1 19 -3 4 -6 -2 -5 -13z"/>
<path d="M3904 747 c1 -12 7 -22 15 -22 22 0 23 19 2 32 -16 10 -18 8 -17 -10z
m21 -7 c3 -5 1 -10 -4 -10 -6 0 -11 5 -11 10 0 6 2 10 4 10 3 0 8 -4 11 -10z"/>
<path d="M4030 760 c-13 -8 -12 -10 3 -10 9 0 17 5 17 10 0 12 -1 12 -20 0z"/>
<path d="M4335 760 c-3 -5 -1 -10 4 -10 6 0 11 5 11 10 0 6 -2 10 -4 10 -3 0
-8 -4 -11 -10z"/>
<path d="M3556 747 c3 -10 9 -15 12 -12 3 3 0 11 -7 18 -10 9 -11 8 -5 -6z"/>
<path d="M3596 747 c3 -10 9 -15 12 -12 3 3 0 11 -7 18 -10 9 -11 8 -5 -6z"/>
<path d="M3455 739 c-4 -6 -5 -12 -2 -15 2 -3 7 2 10 11 7 17 1 20 -8 4z"/>
<path d="M3683 744 c13 -4 15 -9 8 -18 -8 -9 -7 -13 3 -13 21 0 12 32 -10 34
-17 2 -17 1 -1 -3z"/>
<path d="M4215 739 c-4 -6 -5 -12 -2 -15 2 -3 7 2 10 11 7 17 1 20 -8 4z"/>
<path d="M4370 739 c0 -5 5 -7 10 -4 6 3 10 8 10 11 0 2 -4 4 -10 4 -5 0 -10
-5 -10 -11z"/>
<path d="M3415 731 c-6 -11 13 -26 22 -17 4 3 1 6 -6 6 -7 0 -9 5 -6 10 3 6 4
10 1 10 -3 0 -7 -4 -11 -9z"/>
<path d="M3542 724 c10 -10 20 -16 22 -13 3 3 -5 11 -17 18 -21 13 -21 12 -5
-5z"/>
<path d="M3615 720 c-3 -6 1 -7 9 -4 18 7 21 14 7 14 -6 0 -13 -4 -16 -10z"/>
<path d="M3764 671 c4 -6 16 -16 28 -22 15 -8 18 -8 14 0 -4 6 -16 16 -28 22
-15 8 -18 8 -14 0z"/>
<path d="M3909 663 c-12 -16 -12 -17 2 -6 9 7 20 9 24 5 5 -4 5 -1 1 6 -9 16
-11 15 -27 -5z"/>
<path d="M3962 664 c10 -10 20 -16 22 -13 3 3 -5 11 -17 18 -21 13 -21 12 -5
-5z"/>
<path d="M4016 671 c-4 -5 3 -7 14 -4 23 6 26 13 6 13 -8 0 -17 -4 -20 -9z"/>
<path d="M3740 649 c-13 -9 -13 -10 1 -6 9 3 23 0 30 -6 11 -10 11 -9 0 6 -7
9 -14 17 -15 17 0 0 -8 -5 -16 -11z"/>
<path d="M3930 646 c0 -2 7 -7 16 -10 8 -3 12 -2 9 4 -6 10 -25 14 -25 6z"/>
<path d="M2677 599 c4 -13 8 -18 11 -10 2 7 -1 18 -6 23 -8 8 -9 4 -5 -13z"/>
<path d="M2450 600 c0 -5 5 -10 11 -10 5 0 7 5 4 10 -3 6 -8 10 -11 10 -2 0
-4 -4 -4 -10z"/>
<path d="M2580 598 c0 -4 6 -8 14 -8 8 0 17 4 20 8 2 4 -4 8 -15 8 -10 0 -19
-4 -19 -8z"/>
<path d="M2550 579 c0 -5 5 -7 10 -4 6 3 10 8 10 11 0 2 -4 4 -10 4 -5 0 -10
-5 -10 -11z"/>
<path d="M3130 535 c0 -2 6 -8 13 -14 10 -8 14 -7 14 2 0 8 -6 14 -14 14 -7 0
-13 -1 -13 -2z"/>
<path d="M3190 530 c0 -5 5 -10 11 -10 5 0 7 5 4 10 -3 6 -8 10 -11 10 -2 0
-4 -4 -4 -10z"/>
<path d="M3249 523 c-13 -16 -12 -17 4 -4 16 13 21 21 13 21 -2 0 -10 -8 -17
-17z"/>
<path d="M2976 501 c-3 -5 2 -15 12 -22 15 -13 16 -12 4 3 -10 13 -10 17 0 21
9 4 9 6 1 6 -6 1 -14 -3 -17 -8z"/>
<path d="M3033 485 c0 -8 4 -12 9 -9 5 3 6 10 3 15 -9 13 -12 11 -12 -6z"/>
<path d="M1730 479 c0 -5 5 -7 10 -4 6 3 10 8 10 11 0 2 -4 4 -10 4 -5 0 -10
-5 -10 -11z"/>
<path d="M1807 459 c-9 -5 -22 -7 -27 -4 -6 3 -10 4 -10 1 0 -3 10 -11 23 -17
12 -6 19 -8 15 -4 -4 4 0 14 10 21 20 16 14 18 -11 3z"/>
<path d="M1943 447 c0 -8 6 -14 14 -14 9 0 10 4 2 14 -6 7 -12 13 -14 13 -1 0
-2 -6 -2 -13z"/>
<path d="M1679 443 c-1 -5 -1 -12 0 -17 1 -5 -6 -5 -16 -2 -14 6 -15 4 -6 -4
8 -9 16 -9 30 -1 10 6 13 11 5 11 -7 0 -10 5 -7 10 3 6 4 10 1 10 -3 0 -7 -3
-7 -7z"/>
<path d="M1706 438 c3 -5 10 -6 15 -3 13 9 11 12 -6 12 -8 0 -12 -4 -9 -9z"/>
<path d="M1559 389 c12 -10 22 -22 21 -26 0 -13 23 -9 26 5 1 7 0 8 -3 2 -2
-5 -9 -10 -14 -10 -6 0 -7 5 -4 10 3 6 -1 13 -9 16 -9 3 -14 9 -11 13 2 4 -3
8 -12 8 -13 0 -11 -4 6 -18z"/>
<path d="M1620 400 c-12 -7 -10 -9 8 -7 12 0 22 5 22 9 0 11 -12 10 -30 -2z"/>
<path d="M1295 380 c-3 -5 -1 -10 4 -10 6 0 11 5 11 10 0 6 -2 10 -4 10 -3 0
-8 -4 -11 -10z"/>
<path d="M1518 383 c7 -3 16 -2 19 1 4 3 -2 6 -13 5 -11 0 -14 -3 -6 -6z"/>
<path d="M1353 367 c0 -7 9 -14 19 -14 10 -1 18 3 18 9 0 6 -3 8 -7 5 -3 -4
-11 -2 -18 3 -8 7 -12 6 -12 -3z"/>
<path d="M1457 364 c2 -7 11 -10 19 -7 19 7 18 10 -5 16 -13 3 -18 1 -14 -9z"/>
<path d="M1630 365 c0 -8 4 -15 10 -15 5 0 7 7 4 15 -4 8 -8 15 -10 15 -2 0
-4 -7 -4 -15z"/>
<path d="M1331 354 c0 -11 3 -14 6 -6 3 7 2 16 -1 19 -3 4 -6 -2 -5 -13z"/>
<path d="M1506 358 c3 -5 10 -6 15 -3 13 9 11 12 -6 12 -8 0 -12 -4 -9 -9z"/>
<path d="M1551 353 c7 -12 15 -20 18 -17 3 2 -3 12 -13 22 -17 16 -18 16 -5
-5z"/>
<path d="M1270 356 c0 -2 8 -10 18 -17 15 -13 16 -12 3 4 -13 16 -21 21 -21
13z"/>
<path d="M1035 340 c3 -5 8 -10 11 -10 2 0 4 5 4 10 0 6 -5 10 -11 10 -5 0 -7
-4 -4 -10z"/>
<path d="M1486 342 c-8 -14 -16 -65 -8 -57 7 7 8 12 11 41 0 9 6 12 13 8 7 -4
8 -3 4 4 -8 14 -13 15 -20 4z"/>
<path d="M1537 334 c5 -13 3 -15 -7 -9 -9 5 -11 4 -6 -3 4 -7 11 -12 17 -12
12 0 12 27 -1 35 -6 4 -7 -1 -3 -11z"/>
<path d="M1614 342 c3 -5 1 -12 -6 -14 -8 -3 -9 -6 -1 -11 6 -4 13 0 17 8 3 8
0 17 -6 21 -6 4 -8 3 -4 -4z"/>
<path d="M1420 331 c0 -6 4 -13 10 -16 6 -3 7 1 4 9 -7 18 -14 21 -14 7z"/>
<path d="M1175 321 c-3 -5 -2 -12 3 -15 5 -3 9 1 9 9 0 17 -3 19 -12 6z"/>
<path d="M1313 306 l-18 -21 24 20 c13 11 25 19 28 17 3 -2 7 -2 9 1 2 2 -3 4
-11 4 -8 0 -23 -10 -32 -21z"/>
<path d="M1396 321 c-3 -5 2 -15 12 -22 15 -12 16 -12 5 2 -7 9 -10 19 -6 22
3 4 4 7 0 7 -3 0 -8 -4 -11 -9z"/>
<path d="M1633 305 c0 -8 4 -12 9 -9 5 3 6 10 3 15 -9 13 -12 11 -12 -6z"/>
<path d="M936 298 c3 -5 10 -6 15 -3 13 9 11 12 -6 12 -8 0 -12 -4 -9 -9z"/>
<path d="M1065 300 c-3 -6 1 -7 9 -4 18 7 21 14 7 14 -6 0 -13 -4 -16 -10z"/>
<path d="M1267 299 c7 -7 15 -10 18 -7 3 3 -2 9 -12 12 -14 6 -15 5 -6 -5z"/>
<path d="M1329 283 c-13 -16 -12 -17 4 -4 16 13 21 21 13 21 -2 0 -10 -8 -17
-17z"/>
<path d="M1159 288 c-5 -18 -6 -38 -1 -34 7 8 12 36 6 36 -2 0 -4 -1 -5 -2z"/>
<path d="M1550 280 c0 -5 5 -10 11 -10 5 0 7 5 4 10 -3 6 -8 10 -11 10 -2 0
-4 -4 -4 -10z"/>
<path d="M1215 260 c3 -5 8 -10 11 -10 2 0 4 5 4 10 0 6 -5 10 -11 10 -5 0 -7
-4 -4 -10z"/>
<path d="M1250 259 c0 -5 5 -7 10 -4 6 3 10 8 10 11 0 2 -4 4 -10 4 -5 0 -10
-5 -10 -11z"/>
<path d="M1413 255 c0 -8 4 -12 9 -9 5 3 6 10 3 15 -9 13 -12 11 -12 -6z"/>
<path d="M793 245 c0 -8 4 -12 9 -9 5 3 6 10 3 15 -9 13 -12 11 -12 -6z"/>
<path d="M989 243 c-13 -16 -12 -17 4 -4 16 13 21 21 13 21 -2 0 -10 -8 -17
-17z"/>
</g>
</svg>
